<?xml version="1.0" encoding="UTF-8"?>
<svg xmlns="http://www.w3.org/2000/svg" xmlns:xlink="http://www.w3.org/1999/xlink" width="2835" height="2835" viewBox="0 0 2835 2835">
<!-- <path fill-rule="evenodd" fill="rgb(0%, 0%, 0%)" fill-opacity="1" d="M 2834.648438 1417.679688 L 2834.648438 2835 L 0 2835 L 0 0.351562 L 2834.648438 0.351562 L 2834.648438 1417.679688 "/> -->
<path fill-rule="nonzero" fill="rgb(100%, 100%, 100%)" fill-opacity="1" d="M 1572.699219 1023.21875 L 1259.078125 1527.679688 L 1184.898438 1646.960938 L 1184.75 1646.960938 L 1047.339844 1867.457031 L 1125.929688 1646.960938 L 1151.480469 1575.371094 L 1102.480469 1646.960938 L 1067.839844 1697.570312 L 1086.851562 1646.960938 L 1119.761719 1559.378906 L 1050.539062 1646.960938 L 978.570312 1646.960938 L 840.148438 1024.839844 L 840.148438 1023.21875 L 1055.039062 1023.21875 L 1132.421875 1386.78125 L 1357.449219 1023.21875 Z M 1748.109375 1361.960938 C 1808.589844 1361.960938 1869.101562 1377.101562 1918.898438 1408.300781 L 1994.5 1255.03125 C 1936.699219 1220.269531 1853.960938 1201.550781 1761.46875 1201.550781 C 1735.878906 1201.550781 1711.691406 1203.109375 1688.820312 1206.199219 L 1696.390625 1188.398438 L 1681.550781 1207.210938 L 1627.191406 1275.980469 L 1650.910156 1212.859375 L 1660.101562 1188.398438 L 1679.121094 1137.789062 L 1644.46875 1188.398438 L 1622.691406 1220.210938 L 1595.480469 1259.960938 L 1607.941406 1225 L 1620.980469 1188.398438 L 1699.589844 967.898438 L 1562.191406 1188.398438 L 1487.898438 1307.648438 C 1460.910156 1343.238281 1446.578125 1386.601562 1446.578125 1435.910156 C 1446.578125 1629.269531 1742.769531 1590.960938 1742.769531 1656.910156 C 1742.769531 1679.191406 1714.300781 1693.449219 1660.058594 1693.449219 C 1590.679688 1693.449219 1519.519531 1675.628906 1450.140625 1635.511719 L 1369.210938 1790.53125 C 1428.808594 1827.050781 1527.539062 1853.785156 1638.710938 1853.785156 C 1832.609375 1853.785156 1953.589844 1760.238281 1953.589844 1621.230469 C 1953.589844 1428.769531 1656.5 1472.421875 1656.5 1403.808594 C 1656.5 1382.441406 1686.75 1361.980469 1748.109375 1361.980469 L 1748.109375 1361.960938 "/>
</svg>
